<?xml version="1.0" encoding="utf-8"?>
<?xml-stylesheet type="text/xsl" href="rss1.xsl"?>
<rss version="2.0" xmlns:atom="http://www.w3.org/2005/Atom" xmlns:content="http://purl.org/rss/1.0/modules/content/" xmlns:dc="http://purl.org/dc/elements/1.1/" xmlns:media="http://search.yahoo.com/mrss/">
<channel>
 <title>Getty</title>
 <link>http://www.gettyimg.com/</link>
 <atom:link href="http://www.gettyimg.com/" rel="self" type="application/rss+xml" />

 
                <item>
                <title><![CDATA[【Documentaries】WEB-RiP - Taking On Taylor Swift (2023) 720p MAX WEB-RiP DD+5.1 H.265]]></title>
                <link><![CDATA[https://sharemania.us/threads/taking-on-taylor-swift-2023-720p-max-web-rip-dd-5-1-h-265.230986/]]></link>
                <description><![CDATA[<article>
<blockquote class="messageText SelectQuoteContainer ugc baseHtml">
<div style="text-align: center"><span style="font-family: 'Georgia'"><span style="font-size: 18px"><img src="https://resizing.flixster.com/5_J6iFe4fBLc2siFvxRUr0x2Ddc=/ems.cHJkLWVtcy1hc3NldHMvbW92aWVzL2FhODYyNzkyLTc0ZmItNGExZi1hYjcwLTYxMzgzMTZhNGJmNy5qcGc=" class="bbCodeImage LbImage" alt="[​IMG]" data-url="https://resizing.flixster.com/5_J6iFe4fBLc2siFvxRUr0x2Ddc=/ems.cHJkLWVtcy1hc3NldHMvbW92aWVzL2FhODYyNzkyLTc0ZmItNGExZi1hYjcwLTYxMzgzMTZhNGJmNy5qcGc=" style=""> <br>
<span style="color: #ccff99">Taking on Taylor Swift (2023) | MAX Documentary (<i>CNN</i> <b>FLASH</b>DOCS)</span><br>
<div class="bbCodeBlock bbCodeCode">
<div class="type">Code:</div>
<pre>720p MAX WEB-RiP DD+5.1 H.265</pre>
</div></span><br>
<br>
<div class="ToggleTriggerAnchor bbCodeSpoilerContainer">
<button type="button" class="button bbCodeSpoilerButton ToggleTrigger Tooltip JsOnly" data-target="> .SpoilerTarget"><span>Spoiler: <span class="SpoilerTitle">MediaInfo</span></span></button>
<div class="SpoilerTarget bbCodeSpoilerText">General<br>
Format : Matroska<br>
Format version : Version 4<br>
File size : 403 MiB<br>
Duration : 41 min 50 s<br>
Overall bit rate : 1 346 kb/s<br>
Frame rate : 23.976 FPS<br>
Movie name : Taking On Taylor Swift<br>
Encoded date : 2023-10-24 07:25:53 UTC<br>
Writing application : mkvmerge v68.0.0 ('The Curtain') 64-bit<br>
Writing library : libebml v1.4.2 + libmatroska v1.6.4<br>
Video<br>
ID : 1<br>
Format : HEVC<br>
Format/Info : High Efficiency Video Coding<br>
Format profile : Main 10@L3.1@Main<br>
Codec ID : V_MPEGH/ISO/HEVC<br>
Duration : 41 min 50 s<br>
Bit rate : 1 216 kb/s<br>
Width : 1 280 pixels<br>
Height : 692 pixels<br>
Display aspect ratio : 1.85:1<br>
Frame rate mode : Constant<br>
Frame rate : 23.976 (24000/1001) FPS<br>
Color space : YUV<br>
Chroma subsampling : 4:2:0<br>
Bit depth : 10 bits<br>
Bits/(Pixel*Frame) : 0.057<br>
Stream size : 364 MiB (90%)<br>
Writing library : x265 3.5+1-f0c1022b6:[Linux][GCC 10.2.1][64 bit] 10bit<br>
Encoding settings : cpuid=1111039 / frame-threads=5 / wpp / no-pmode / no-pme / psnr / ssim / log-level=2 / input-csp=1 / input-res=1280x692 / interlace=0 / total-frames=0 / level-idc=0 / high-tier=0 / uhd-bd=0 / ref=3 / no-allow-non-conformance / repeat-headers / annexb / aud / no-eob / no-eos / hrd / info / hash=0 / no-temporal-layers / no-open-gop / min-keyint=96 / keyint=96 / gop-lookahead=0 / bframes=4 / b-adapt=2 / b-pyramid / bframe-bias=0 / rc-lookahead=96 / lookahead-slices=0 / scenecut=40 / no-hist-scenecut / radl=0 / no-splice / no-intra-refresh / ctu=64 / min-cu-size=8 / no-rect / no-amp / max-tu-size=32 / tu-inter-depth=1 / tu-intra-depth=1 / limit-tu=0 / rdoq-level=0 / dynamic-rd=0.00 / no-ssim-rd / signhide / no-tskip / nr-intra=0 / nr-inter=0 / no-constrained-intra / strong-intra-smoothing / max-merge=3 / limit-refs=1 / no-limit-modes / me=1 / subme=2 / merange=57 / temporal-mvp / no-frame-dup / no-hme / weightp / weightb / no-analyze-src-pics / deblock=0:0 / no-sao / no-sao-non-deblock / rd=3 / selective-sao=0 / early-skip / rskip / no-fast-intra / no-tskip-fast / no-cu-lossless / b-intra / no-splitrd-skip / rdpenalty=0 / psy-rd=2.00 / psy-rdoq=0.00 / no-rd-refine / no-lossless / cbqpoffs=0 / crqpoffs=0 / rc=crf / crf=23.0 / qcomp=0.60 / qpstep=4 / stats-write=0 / stats-read=0 / vbv-maxrate=3400 / vbv-bufsize=12000 / vbv-init=0.9 / min-vbv-fullness=50.0 / max-vbv-fullness=80.0 / crf-max=0.0 / crf-min=0.0 / ipratio=1.40 / pbratio=1.30 / aq-mode=2 / aq-strength=1.00 / cutree / zone-count=0 / no-strict-cbr / qg-size=32 / no-rc-grain / qpmax=69 / qpmin=0 / no-const-vbv / sar=1 / overscan=0 / videoformat=5 / range=0 / colorprim=1 / transfer=1 / colormatrix=1 / chromaloc=0 / display-window=0 / cll=0,0 / min-luma=0 / max-luma=1023 / log2-max-poc-lsb=8 / vui-timing-info / vui-hrd-info / slices=1 / no-opt-qp-pps / no-opt-ref-list-length-pps / no-multi-pass-opt-rps / scenecut-bias=0.05 / hist-threshold=0.03 / no-opt-cu-delta-qp / no-aq-motion / no-hdr10 / no-hdr10-opt / no-dhdr10-opt / no-idr-recovery-sei / analysis-reuse-level=0 / analysis-save-reuse-level=0 / analysis-load-reuse-level=0 / scale-factor=0 / refine-intra=0 / refine-inter=0 / refine-mv=1 / refine-ctu-distortion=0 / no-limit-sao / ctu-info=0 / no-lowpass-dct / refine-analysis-type=0 / copy-pic=1 / max-ausize-factor=1.0 / no-dynamic-refine / no-single-sei / no-hevc-aq / no-svt / no-field / qp-adaptation-range=1.00 / scenecut-aware-qp=0conformance-window-offsets / right=0 / bottom=0 / decoder-max-rate=0 / no-vbv-live-multi-pass<br>
Default : Yes<br>
Forced : No<br>
Color range : Limited<br>
Color primaries : BT.709<br>
Transfer characteristics : BT.709<br>
Matrix coefficients : BT.709<br>
Audio<br>
ID : 2<br>
Format : E-AC-3<br>
Format/Info : Enhanced AC-3<br>
Commercial name : Dolby Digital Plus<br>
Codec ID : A_EAC3<br>
Duration : 41 min 50 s<br>
Bit rate mode : Constant<br>
Bit rate : 128 kb/s<br>
Channel(s) : 2 channels<br>
Channel layout : L R<br>
Sampling rate : 48.0 kHz<br>
Frame rate : 31.250 FPS (1536 SPF)<br>
Compression mode : Lossy<br>
Stream size : 38.3 MiB (10%)<br>
Title : English<br>
Language : English<br>
Service kind : Complete Main<br>
Default : Yes<br>
Forced : No<br>
Text<br>
ID : 3<br>
Format : UTF-8<br>
Codec ID : S_TEXT/UTF8<br>
Codec ID/Info : UTF-8 Plain Text<br>
Duration : 11 min 28 s<br>
Bit rate : 127 b/s<br>
Frame rate : 0.395 FPS<br>
Count of elements : 272<br>
Stream size : 10.7 KiB (0%)<br>
Title : English CC<br>
Language : English<br>
Default : Yes<br>
Forced : No</div>
</div></span>​</div><br>
<div style="text-align: center"><span style="font-family: 'Georgia'"><img src="https://i.imgur.com/BTPRxxN.jpg" class="bbCodeImage LbImage" alt="[​IMG]" data-url="https://i.imgur.com/BTPRxxN.jpg" style=""> <br>
<br>
<div class="bbCodeBlock bbCodeVfcHH HiddenContent">
<div class="attribution type">Hidden Content:</div>
<blockquote>You must reply before you can see the hidden data contained here.</blockquote>
</div></span>​</div>
<div class="messageTextEndMarker">&nbsp;</div>
</blockquote>
</article>]]></description>
                <author><![CDATA[bspengeman]]></author>
                </item>

                </channel></rss>